<svg width="128" height="36" viewBox="0 0 128 36" fill="none" xmlns="http://www.w3.org/2000/svg">
<path d="M45.4492 15.5293H56.2916L57.0536 11.4143H51.6767L51.9699 9.78425H56.6145L57.3154 5.94224H52.6691L52.9457 4.47496H57.8866L58.6248 0.359949H48.2418L45.4492 15.5293Z" fill="#EE2840"/>
<path d="M59.2122 15.5293H64.7847L67.5829 0.359949H62.0124L59.2122 15.5293Z" fill="#EE2840"/>
<path d="M70.6883 2.96809C69.3086 4.58154 68.6135 6.57685 68.6135 8.82787C68.6135 10.9524 69.4593 12.9007 70.9229 14.1752C72.2361 15.3193 73.9318 15.9365 75.8121 15.9365C76.7427 15.9365 77.6571 15.7689 78.5899 15.4251L79.6036 9.95338C78.6299 10.5685 77.5709 10.8857 76.7224 10.8857C75.1129 10.8857 74.0784 9.88876 74.0784 8.27323C74.0784 6.38679 75.4306 5.02698 77.3401 5.02698C78.3346 5.02698 79.3104 5.34836 80.3459 5.941L81.2818 0.868773C80.1338 0.295824 78.8665 1.90735e-05 77.4281 1.90735e-05C74.6738 1.90735e-05 72.2947 1.0813 70.6883 2.96809Z" fill="#EE2840"/>
<path d="M91.9056 5.60132H88.9232L89.8708 0.358728H84.3866L81.5891 15.5281H87.0754L88.0922 10.0768H91.0811L90.0594 15.5281H95.5509L98.3666 0.358728H92.8628L91.9056 5.60132Z" fill="#EE2840"/>
<path d="M110.888 4.47118L111.626 0.356167H101.247L98.4484 15.5276H109.298L110.061 11.4122H104.675L104.974 9.78219H109.617L110.312 5.93845H105.673L105.948 4.47118H110.888Z" fill="#EE2840"/>
<path d="M127.227 4.91696C127.227 1.96962 124.984 0.35824 120.552 0.35824H114.726L111.934 15.5276H117.396L118.412 10.0137L120.061 15.5276H125.678L123.497 9.69615C125.873 9.18402 127.227 7.44513 127.227 4.91696ZM119.345 7.08677H118.946L119.498 4.13529H119.814C121.175 4.13529 121.783 4.51645 121.783 5.40283C121.783 6.57326 120.998 7.08677 119.345 7.08677Z" fill="#EE2840"/>
<path d="M34.9113 2.90578C34.9113 2.61965 34.6816 2.39054 34.3991 2.39054L19.8985 2.39434C19.6198 2.39434 19.388 2.62276 19.388 2.90578C19.388 3.19364 19.6198 3.41895 19.8985 3.41895L34.3991 3.41618C34.6816 3.41618 34.9113 3.19364 34.9113 2.90578Z" fill="#EE2840"/>
<path d="M38.3262 6.96608C38.3262 6.67615 38.0985 6.45084 37.8146 6.45084H25.9415C25.6621 6.45084 25.4351 6.68307 25.4351 6.96608C25.4351 7.2491 25.6621 7.4834 25.9415 7.4834L37.8146 7.47752C38.0985 7.47752 38.3262 7.2491 38.3262 6.96608Z" fill="#EE2840"/>
<path d="M39.0643 8.99134C39.0643 8.71592 38.8346 8.48093 38.5528 8.48093H28.1356C27.8569 8.48093 27.6251 8.71592 27.6251 8.99928C27.6251 9.28714 27.8569 9.51245 28.1356 9.51245H38.5528C38.8346 9.51245 39.0643 9.28334 39.0643 8.99134Z" fill="#EE2840"/>
<path d="M39.3748 11.0302C39.3748 10.7451 39.1461 10.517 38.8633 10.517H30.0487C29.7651 10.517 29.5306 10.7472 29.5306 11.0302C29.5306 11.3153 29.7651 11.5454 30.0487 11.5454H38.8633C39.1461 11.5454 39.3748 11.3132 39.3748 11.0302Z" fill="#EE2840"/>
<path d="M38.7918 12.5438H31.8054C31.525 12.5438 31.2922 12.7809 31.2922 13.0611C31.2922 13.3479 31.525 13.5774 31.8054 13.5774L38.7918 13.5715C39.0743 13.5715 39.3024 13.3479 39.3024 13.0611C39.3024 12.7729 39.0743 12.5438 38.7918 12.5438Z" fill="#EE2840"/>
<path d="M38.1985 14.5721L33.429 14.5759C33.1482 14.5759 32.9175 14.8081 32.9175 15.0912C32.9175 15.3783 33.1482 15.6057 33.429 15.6057H38.1985C38.4793 15.6057 38.7107 15.3745 38.7107 15.0912C38.7107 14.8081 38.4793 14.5721 38.1985 14.5721Z" fill="#EE2840"/>
<path d="M37.0395 4.93435C37.0395 4.65133 36.8109 4.42187 36.528 4.42187H23.3955C23.113 4.42187 22.8784 4.65133 22.8784 4.93435C22.8784 5.22048 23.113 5.45166 23.3955 5.45166L36.528 5.44959C36.8109 5.44959 37.0395 5.21737 37.0395 4.93435Z" fill="#EE2840"/>
<path d="M13.9666 10.8503C13.7955 10.8413 13.5844 10.965 13.4688 11.2128C13.3026 11.5594 12.9056 11.9758 12.2067 12.1403C11.303 12.3511 10.3771 12.1178 9.65278 12.3763C8.97704 12.6224 7.54244 13.1932 7.43516 13.262C7.3441 13.3187 7.27856 13.4431 7.25028 13.5188C7.25028 13.5188 7.16611 13.9214 6.59903 13.9214C6.53453 13.9214 6.00056 13.9455 5.72875 13.9514C5.1734 13.9898 5.26929 13.6587 5.31413 13.6059C5.34069 13.5775 6.35861 12.8622 6.35861 12.8622C6.44829 12.7996 6.47761 12.6096 6.38586 12.4676C6.28824 12.3266 6.09438 12.2924 5.95675 12.3891C5.95675 12.3891 4.41557 13.4932 4.36865 13.5146C4.24344 13.5775 4.16549 13.4521 4.16549 13.4521C3.91506 13.1621 3.94541 12.6175 3.79088 12.0346C3.62842 11.3821 4.06373 10.8424 4.37452 10.6122L8.43928 7.10851C8.39927 6.73322 8.54 6.43258 8.98567 6.12191C9.02499 6.09358 15.3884 1.32406 15.4812 1.23975C16.3553 0.548267 16.3856 1.29262 16.2477 1.50341C16.1559 1.63266 16.197 1.89114 16.4119 1.97649C16.5322 2.02453 16.7123 2.00276 17.1393 1.81581C17.6626 1.59845 18.913 1.39249 19.4421 1.39249H29.475C29.7617 1.39249 29.9894 1.15854 29.9894 0.877245C29.9894 0.590425 29.7617 0.361317 29.475 0.361317L11.2678 0.354404C5.04232 0.354404 0 4.65948 0 10.9091C0 17.1666 5.04646 21.5981 10.7086 21.5981L18.9247 21.5999C19.1703 21.5999 19.3745 21.3963 19.3745 21.1503C19.3745 20.9837 19.1986 20.8251 19.1086 20.7332C15.7892 17.9023 15.4077 10.9374 13.9666 10.8503Z" fill="#EE2840"/>
<path d="M92.623 5.58396H89.6338L90.5872 0.332384H85.0913L82.2917 15.5266H87.7839L88.8018 10.0663H91.7959L90.7741 15.5266H96.2742L99.0951 0.332384H93.5792L92.623 5.58396Z" fill="#EE2840"/>
<path d="M111.633 4.45404L112.374 0.332118H101.976L99.1727 15.5281H110.039L110.804 11.4058H105.41L105.708 9.77197H110.358L111.056 5.92339H106.408L106.684 4.45404H111.633Z" fill="#EE2840"/>
<path d="M128 4.89964C128 1.94711 125.753 0.332972 121.312 0.332972H115.479L112.68 15.5269H118.154L119.17 10.004L120.822 15.5269H126.448L124.265 9.68574C126.644 9.17534 128 7.43195 128 4.89964ZM120.104 7.07222H119.704L120.255 4.11589H120.575C121.936 4.11589 122.546 4.49809 122.546 5.38827C122.546 6.56009 121.759 7.07222 120.104 7.07222Z" fill="#EE2840"/>
<path d="M35.5357 2.88155C35.5357 2.59438 35.3049 2.36527 35.0224 2.36527L20.5004 2.36907C20.2197 2.36907 19.9851 2.59853 19.9851 2.88155C19.9851 3.17044 20.2197 3.39575 20.5004 3.39575L35.0224 3.39195C35.3049 3.39195 35.5357 3.17044 35.5357 2.88155Z" fill="#EE2840"/>
<path d="M38.9574 6.95235C38.9574 6.66139 38.7287 6.43608 38.4442 6.43608H26.5534C26.2706 6.43608 26.045 6.66933 26.045 6.95235C26.045 7.23537 26.2706 7.4707 26.5534 7.4707L38.4442 7.46483C38.7287 7.46483 38.9574 7.23537 38.9574 6.95235Z" fill="#EE2840"/>
<path d="M39.6956 8.97736C39.6956 8.69918 39.4648 8.46592 39.1823 8.46592H28.7493C28.4696 8.46592 28.2371 8.69918 28.2371 8.98531C28.2371 9.27317 28.4696 9.49951 28.7493 9.49951H39.1823C39.4648 9.49951 39.6956 9.26936 39.6956 8.97736Z" fill="#EE2840"/>
<path d="M40.0026 11.0199C40.0026 10.7348 39.7749 10.5057 39.4911 10.5057H30.6627C30.3774 10.5057 30.1436 10.7368 30.1436 11.0199C30.1436 11.307 30.3774 11.5361 30.6627 11.5361H39.4911C39.7749 11.5361 40.0026 11.3029 40.0026 11.0199Z" fill="#EE2840"/>
<path d="M39.4196 12.5368H32.4225C32.1421 12.5368 31.9072 12.7738 31.9072 13.0551C31.9072 13.342 32.1421 13.5693 32.4225 13.5693L39.4196 13.5662C39.7021 13.5662 39.9329 13.342 39.9329 13.0551C39.9329 12.7659 39.7021 12.5368 39.4196 12.5368Z" fill="#EE2840"/>
<path d="M38.8263 14.5653L34.05 14.5691C33.7664 14.5691 33.5367 14.8024 33.5367 15.0854C33.5367 15.3726 33.7664 15.5996 34.05 15.5996H38.8263C39.1078 15.5996 39.3406 15.3684 39.3406 15.0854C39.3406 14.8024 39.1078 14.5653 38.8263 14.5653Z" fill="#EE2840"/>
<path d="M37.6674 4.91695C37.6674 4.63393 37.4404 4.40551 37.1558 4.40551H24.0029C23.7204 4.40551 23.4855 4.63393 23.4855 4.91695C23.4855 5.20412 23.7204 5.4353 24.0029 5.4353L37.1558 5.43323C37.4404 5.43323 37.6674 5.19997 37.6674 4.91695Z" fill="#EE2840"/>
<path d="M46.4254 15.5293H57.2679L58.0299 11.4143H52.6529L52.9461 9.78425H57.5907L58.2917 5.94224H53.6453L53.922 4.47496H58.8629L59.6011 0.359949H49.2191L46.4254 15.5293Z" fill="#EE2840"/>
<path d="M60.1919 15.5293H65.7644L68.5625 0.359949H62.9921L60.1919 15.5293Z" fill="#EE2840"/>
<path d="M3.22801 24.1714H125.948L123.996 36H1.28259L3.22801 24.1714Z" fill="#083A81"/>
<path d="M11.5157 32.694C11.472 32.9301 11.4283 33.0525 11.236 33.0437L10.4054 33.0175C10.2043 33.0087 10.1431 32.9475 10.0732 32.7902L8.53443 29.5553C8.45574 29.363 8.3858 29.3105 8.34209 29.5641L7.79129 32.694C7.74757 32.9475 7.70386 33 7.44157 33H6.53231C6.43614 33 6.20883 33.0262 6.26129 32.7465L7.29294 26.88C7.30169 26.8363 7.35414 26.6002 7.54649 26.6002H8.37706C8.68306 26.6002 8.66557 26.6527 8.74426 26.7838L10.283 30.1149C10.3442 30.281 10.4404 30.2722 10.4841 29.9837L11.0349 26.88C11.0611 26.7489 11.1485 26.5827 11.2972 26.6002H12.3725C12.5474 26.6002 12.5736 26.6877 12.5387 26.8887L11.5157 32.694ZM17.5928 26.88L18.336 32.7115C18.371 32.9913 18.2573 33 18.0125 33H16.9721C16.7623 33 16.7623 32.9475 16.736 32.7727L16.6136 31.8285H14.6203L14.1744 32.7727C14.0957 32.9475 14.052 33 13.8684 33H12.8192C12.6881 33 12.6269 32.9475 12.7406 32.7115L15.547 26.88C15.6432 26.6702 15.7306 26.6002 15.9842 26.6002H17.2519C17.5142 26.6002 17.5579 26.6702 17.5928 26.88ZM16.4738 30.7706L16.2027 28.4887L15.1274 30.7706H16.4738ZM25.0207 26.8713C25.0207 26.8713 22.4065 30.3771 22.4328 30.3684L22.0044 32.7552C21.9781 32.9475 21.8732 33 21.6284 33H20.5618C20.3695 33 20.3257 32.9475 20.352 32.7989L20.7804 30.3597L19.3203 26.845C19.2154 26.609 19.3553 26.6002 19.5651 26.6002H20.7367C20.9552 26.6002 20.964 26.6439 21.0427 26.8363L21.9344 29.0832C21.9432 29.0745 23.6043 26.8363 23.6043 26.8363C23.7529 26.6527 23.7617 26.6002 24.0152 26.6002H24.872C25.1081 26.6002 25.213 26.609 25.0207 26.8713ZM26.7984 32.7814C26.7722 32.9475 26.711 33 26.5099 33H25.4433C25.1985 33 25.1198 32.9475 25.1547 32.729L26.1951 26.845C26.2301 26.6439 26.2913 26.6002 26.5536 26.6002H27.6639C27.8563 26.6002 27.8738 26.6789 27.8388 26.88L26.7984 32.7814ZM35.6837 30.893C35.6837 32.5454 34.1449 33.1224 32.7111 33.1224C31.9417 33.1224 31.1461 32.8863 30.7352 32.6328C30.639 32.5716 31.1199 31.2514 31.2685 31.3389C31.5308 31.4962 32.1166 31.7498 32.6849 31.7498C33.3318 31.7498 33.8826 31.5837 33.8826 31.0678C33.8826 30.2023 31.6095 30.3422 31.6095 28.5499C31.6095 27.3696 32.9122 26.5041 34.2936 26.5041C35.1066 26.5041 35.7973 26.7051 36.0946 26.8625C36.2694 26.9587 35.841 28.2177 35.6225 28.104C35.334 27.9554 34.7569 27.7543 34.2761 27.7543C33.7165 27.7543 33.3493 27.9204 33.3493 28.3575C33.3493 29.1794 35.6837 29.1182 35.6837 30.893ZM42.0979 31.0154C41.7394 33.0262 40.0957 33.1137 39.1777 33.1137C37.7876 33.1137 36.7472 32.5629 37.0095 31.1028L37.4379 28.6985C37.7177 27.1335 38.6269 26.5041 40.2619 26.5041C41.5908 26.5041 42.806 26.9762 42.5 28.7335L42.0979 31.0154ZM40.4629 30.8318L40.8389 28.7335C40.9263 28.2264 40.699 27.8417 40.122 27.8417C39.3701 27.8417 39.1078 28.3401 39.0466 28.6898L38.6532 30.9629C38.5657 31.4525 38.9767 31.7498 39.3439 31.7498C39.9996 31.7498 40.358 31.435 40.4629 30.8318ZM48.7779 26.9674C48.8566 27.0461 48.4019 28.104 48.262 28.0341C47.991 27.8942 47.5976 27.763 47.0818 27.763C46.3998 27.763 45.7616 28.0078 45.5867 28.9958L45.272 30.7881C45.1321 31.5662 45.4731 31.8984 46.1725 31.8984C46.8282 31.8984 47.344 31.6623 47.5626 31.5487C47.6938 31.4787 47.9735 32.5366 47.8599 32.6153C47.5451 32.8164 46.732 33.1137 45.814 33.1137C43.9868 33.1137 43.3223 32.3443 43.5584 31.0154L43.9343 28.8471C44.1616 27.5707 45.0184 26.5041 47.1342 26.5041C48.0085 26.5041 48.5418 26.7838 48.7779 26.9674ZM55.4387 26.8538L54.407 32.7202C54.3633 32.9475 54.3284 33 54.0836 33H52.9994C52.7896 33 52.7197 32.9126 52.7546 32.7202L53.1568 30.4646C53.183 30.3247 53.1568 30.2897 53.0169 30.2897H51.3995C51.2946 30.2897 51.2596 30.2985 51.2334 30.4383L50.8312 32.7202C50.7875 32.9475 50.6826 33 50.4203 33H49.3624C49.1701 33 49.1526 32.9126 49.1876 32.694L50.2192 26.8275C50.2454 26.6614 50.3154 26.6002 50.5165 26.6002H51.5656C51.8192 26.6002 51.9066 26.6614 51.8629 26.8887L51.5044 28.8909C51.4782 29.0307 51.5394 29.057 51.6793 29.057H53.253C53.3579 29.057 53.4104 29.0133 53.4278 28.9083L53.795 26.8275C53.8213 26.6614 53.9349 26.6002 54.1535 26.6002H55.2201C55.4737 26.6002 55.4737 26.6702 55.4387 26.8538ZM63.7048 32.694C63.6611 32.9301 63.6174 33.0525 63.425 33.0437L62.5945 33.0175C62.3934 33.0087 62.3322 32.9475 62.2622 32.7902L60.7235 29.5553C60.6448 29.363 60.5749 29.3105 60.5311 29.5641L59.9803 32.694C59.9366 32.9475 59.8929 33 59.6306 33H58.7214C58.6252 33 58.3979 33.0262 58.4503 32.7465L59.482 26.88C59.4907 26.8363 59.5432 26.6002 59.7355 26.6002H60.5661C60.8721 26.6002 60.8546 26.6527 60.9333 26.7838L62.4721 30.1149C62.5333 30.281 62.6294 30.2722 62.6731 29.9837L63.2239 26.88C63.2502 26.7489 63.3376 26.5827 63.4862 26.6002H64.5616C64.7365 26.6002 64.7627 26.6877 64.7277 26.8887L63.7048 32.694ZM69.7819 26.88L70.5251 32.7115C70.56 32.9913 70.4464 33 70.2016 33H69.1612C68.9513 33 68.9513 32.9475 68.9251 32.7727L68.8027 31.8285H66.8093L66.3635 32.7727C66.2848 32.9475 66.2411 33 66.0575 33H65.0083C64.8772 33 64.816 32.9475 64.9296 32.7115L67.7361 26.88C67.8323 26.6702 67.9197 26.6002 68.1732 26.6002H69.4409C69.7032 26.6002 69.7469 26.6702 69.7819 26.88ZM68.6628 30.7706L68.3918 28.4887L67.3164 30.7706H68.6628ZM77.2097 26.8713C77.2097 26.8713 74.5956 30.3771 74.6218 30.3684L74.1934 32.7552C74.1672 32.9475 74.0623 33 73.8175 33H72.7509C72.5585 33 72.5148 32.9475 72.541 32.7989L72.9694 30.3597L71.5094 26.845C71.4045 26.609 71.5443 26.6002 71.7542 26.6002H72.9257C73.1443 26.6002 73.153 26.6439 73.2317 26.8363L74.1235 29.0832C74.1322 29.0745 75.7934 26.8363 75.7934 26.8363C75.942 26.6527 75.9507 26.6002 76.2043 26.6002H77.0611C77.2971 26.6002 77.4021 26.609 77.2097 26.8713ZM81.6278 31.9334L81.4792 32.7902C81.4529 32.9388 81.348 33 81.1994 33H77.5536C77.44 33 77.3088 32.9388 77.3438 32.7202L78.3755 26.8887C78.4017 26.7226 78.4367 26.6002 78.629 26.6002H82.1873C82.3972 26.6002 82.4059 26.6702 82.3884 26.7926L82.2223 27.6231C82.1873 27.798 82.03 27.8067 81.7852 27.8067H80.0016C79.8093 27.8067 79.7568 27.8767 79.7481 27.9466L79.5907 28.8646C79.5645 29.0133 79.6257 29.0657 79.7481 29.0657H81.4005C81.5491 29.0657 81.5666 29.1531 81.5404 29.2581L81.3743 30.0711C81.3131 30.2897 81.1819 30.2985 81.0683 30.2985H79.5995C79.4333 30.2985 79.3459 30.3684 79.3197 30.4995L79.1361 31.5399C79.1011 31.741 79.241 31.7323 79.4071 31.7323H81.3568C81.5316 31.7323 81.654 31.776 81.6278 31.9334ZM91.1059 28.6286C90.9486 29.5116 90.2229 30.0537 89.7945 30.211C89.6634 30.2635 89.6721 30.246 89.6983 30.3509L90.3453 32.7027C90.4065 32.8863 90.3978 33.0087 90.1792 33H88.9027C88.6579 32.9913 88.6579 32.9038 88.623 32.7465L88.0547 30.7269C88.0372 30.6569 88.011 30.6569 87.9323 30.6569H87.399C87.3203 30.6569 87.3028 30.6919 87.2853 30.7881L86.9443 32.7202C86.9094 32.9475 86.8045 33 86.5684 33H85.4668C85.2307 33 85.2657 32.8951 85.3007 32.694L86.3323 26.8275C86.3586 26.6614 86.4198 26.6002 86.6383 26.6002H88.9465C90.5027 26.6002 91.307 27.4483 91.1059 28.6286ZM89.4535 28.5849C89.541 28.0778 89.1301 27.8155 88.6142 27.8155H87.9935C87.8623 27.8155 87.8186 27.9029 87.8099 27.9729L87.5913 29.2056C87.5651 29.3367 87.6001 29.3717 87.7399 29.3717H88.553C88.9639 29.3717 89.3574 29.1182 89.4535 28.5849ZM96.3247 26.88L97.0678 32.7115C97.1028 32.9913 96.9891 33 96.7443 33H95.7039C95.4941 33 95.4941 32.9475 95.4679 32.7727L95.3455 31.8285H93.3521L92.9062 32.7727C92.8275 32.9475 92.7838 33 92.6002 33H91.5511C91.4199 33 91.3587 32.9475 91.4724 32.7115L94.2788 26.88C94.375 26.6702 94.4624 26.6002 94.716 26.6002H95.9837C96.246 26.6002 96.2897 26.6702 96.3247 26.88ZM95.2056 30.7706L94.9346 28.4887L93.8592 30.7706H95.2056ZM102.711 26.88L103.454 32.7115C103.489 32.9913 103.375 33 103.13 33H102.09C101.88 33 101.88 32.9475 101.854 32.7727L101.732 31.8285H99.7382L99.2923 32.7727C99.2136 32.9475 99.1699 33 98.9863 33H97.9371C97.806 33 97.7448 32.9475 97.8584 32.7115L100.665 26.88C100.761 26.6702 100.848 26.6002 101.102 26.6002H102.37C102.632 26.6002 102.676 26.6702 102.711 26.88ZM101.592 30.7706L101.321 28.4887L100.245 30.7706H101.592ZM109.473 30.893C109.473 32.5454 107.934 33.1224 106.5 33.1224C105.731 33.1224 104.935 32.8863 104.524 32.6328C104.428 32.5716 104.909 31.2514 105.058 31.3389C105.32 31.4962 105.906 31.7498 106.474 31.7498C107.121 31.7498 107.672 31.5837 107.672 31.0678C107.672 30.2023 105.399 30.3422 105.399 28.5499C105.399 27.3696 106.701 26.5041 108.083 26.5041C108.896 26.5041 109.586 26.7051 109.884 26.8625C110.058 26.9587 109.63 28.2177 109.412 28.104C109.123 27.9554 108.546 27.7543 108.065 27.7543C107.506 27.7543 107.138 27.9204 107.138 28.3575C107.138 29.1794 109.473 29.1182 109.473 30.893ZM116.079 27.6319C116.062 27.7368 116.036 27.8155 115.826 27.8155H114.488C114.331 27.8155 114.287 27.8417 114.261 27.9816L113.421 32.7115C113.386 32.9388 113.29 33 113.037 33H112.075C111.795 33 111.725 32.965 111.769 32.7115L112.608 27.9816C112.635 27.8417 112.591 27.8155 112.433 27.8155H111.157C110.947 27.8155 110.956 27.7368 110.973 27.6319L111.122 26.7926C111.148 26.6265 111.271 26.6002 111.489 26.6002H115.931C116.14 26.6002 116.254 26.6177 116.228 26.7838L116.079 27.6319ZM120.567 31.9334L120.418 32.7902C120.392 32.9388 120.287 33 120.139 33H116.493C116.379 33 116.248 32.9388 116.283 32.7202L117.315 26.8887C117.341 26.7226 117.376 26.6002 117.568 26.6002H121.127C121.336 26.6002 121.345 26.6702 121.328 26.7926L121.161 27.6231C121.127 27.798 120.969 27.8067 120.724 27.8067H118.941C118.748 27.8067 118.696 27.8767 118.687 27.9466L118.53 28.8646C118.504 29.0133 118.565 29.0657 118.687 29.0657H120.34C120.488 29.0657 120.506 29.1531 120.48 29.2581L120.313 30.0711C120.252 30.2897 120.121 30.2985 120.007 30.2985H118.539C118.373 30.2985 118.285 30.3684 118.259 30.4995L118.075 31.5399C118.04 31.741 118.18 31.7323 118.346 31.7323H120.296C120.471 31.7323 120.593 31.776 120.567 31.9334Z" fill="white"/>
</svg>
